<?xml version="1.0" standalone="no"?>
<!DOCTYPE svg PUBLIC "-//W3C//DTD SVG 20010904//EN"
 "http://www.w3.org/TR/2001/REC-SVG-20010904/DTD/svg10.dtd">
<svg version="1.0" xmlns="http://www.w3.org/2000/svg"
 width="512.000000pt" height="512.000000pt" viewBox="0 0 512.000000 512.000000"
 preserveAspectRatio="xMidYMid meet">
<metadata>
Created by potrace 1.11, written by Peter Selinger 2001-2013
</metadata>
<g transform="translate(0.000000,512.000000) scale(0.100000,-0.100000)"
fill="#000000" stroke="none">
<path d="M3607 3964 c-1 -1 -34 -5 -73 -8 -294 -27 -532 -148 -668 -340 -44
-61 -86 -146 -100 -201 -4 -16 -10 -39 -13 -50 -3 -11 -7 -77 -9 -147 -2 -103
1 -142 17 -200 37 -136 106 -239 214 -321 144 -109 239 -144 730 -271 368 -96
516 -192 569 -370 65 -218 -76 -430 -349 -521 -77 -25 -119 -30 -270 -30 -111
1 -158 5 -225 23 -183 48 -322 147 -385 275 -20 40 -38 85 -41 101 -3 16 -7
33 -10 38 -3 4 -80 8 -170 8 l-166 0 7 -42 c41 -264 188 -468 421 -587 69 -35
182 -76 239 -87 22 -5 42 -9 45 -9 3 -1 28 -5 55 -9 28 -4 61 -10 75 -12 82
-13 322 -2 430 21 351 73 585 263 666 540 26 90 27 99 27 240 0 113 -4 140
-27 212 -30 93 -85 182 -151 242 -64 59 -178 131 -260 164 -39 16 -79 33 -90
37 -47 20 -372 111 -479 135 -197 44 -380 129 -456 211 -141 155 -93 430 97
552 103 66 270 110 408 107 204 -5 348 -58 457 -167 62 -62 97 -122 122 -209
l16 -55 165 0 165 0 -5 45 c-16 140 -85 286 -188 397 -92 99 -174 153 -342
224 -51 22 -138 42 -242 56 -42 6 -201 12 -206 8z"/>
<path d="M570 3902 l-25 -3 2 -1297 c1 -713 2 -1307 2 -1320 l1 -23 608 4
c334 2 623 7 642 11 151 31 260 69 345 120 210 126 320 326 324 588 2 112 -9
183 -41 268 -75 195 -252 337 -475 382 -58 11 -89 34 -60 43 97 30 126 43 176
76 178 119 279 320 267 530 -9 172 -61 294 -171 405 -125 126 -287 194 -500
210 -89 6 -1046 12 -1095 6z m1080 -309 c236 -48 363 -202 354 -428 -3 -75
-21 -135 -58 -200 -54 -92 -192 -165 -362 -191 -75 -11 -694 -12 -701 0 -7 11
-12 802 -5 824 7 20 671 16 772 -5z m45 -1125 c255 -50 394 -162 430 -347 7
-33 7 -179 1 -210 -30 -145 -121 -249 -269 -307 -114 -45 -206 -53 -610 -54
l-372 0 2 462 c0 255 1 465 2 466 1 5 791 -5 816 -10z"/>
</g>
</svg>
